<svg width="35" height="33" viewBox="0 0 35 33" fill="none" xmlns="http://www.w3.org/2000/svg">
<path d="M23.7735 16.1812C26.7582 16.1812 29.1778 13.7482 29.1778 10.7469C29.1778 7.74555 26.7582 5.3125 23.7735 5.3125C20.7887 5.3125 18.3691 7.74555 18.3691 10.7469C18.3691 13.7482 20.7887 16.1812 23.7735 16.1812Z" fill="#FF4F75"/>
<path d="M32.9993 19.664C34.0128 20.6831 34.5822 22.0653 34.5822 23.5066V25.2238C34.5822 25.7761 34.1345 26.2238 33.5822 26.2238H13.9648C13.4126 26.2238 12.9648 25.7761 12.9648 25.2238V23.5066C12.9648 22.0653 13.5342 20.6831 14.5477 19.664C15.5612 18.6448 16.9359 18.0723 18.3692 18.0723H29.1779C30.6112 18.0723 31.9858 18.6448 32.9993 19.664Z" fill="#FF4F75"/>
<g filter="url(#filter0_d_1011_8746)">
<path d="M17.8068 15.878C21.3433 15.878 24.2102 12.9952 24.2102 9.43902C24.2102 5.88285 21.3433 3 17.8068 3C14.2702 3 11.4033 5.88285 11.4033 9.43902C11.4033 12.9952 14.2702 15.878 17.8068 15.878Z" fill="white" fill-opacity="0.5" stroke="white" stroke-width="0.25" stroke-linecap="round" stroke-linejoin="round"/>
<path d="M28.7383 20.0051C29.9391 21.2126 30.6138 22.8504 30.6138 24.5582V25.7777C30.6138 26.8822 29.7183 27.7777 28.6138 27.7777H7C5.89543 27.7777 5 26.8822 5 25.7777V24.5582C5 22.8504 5.67465 21.2126 6.87552 20.0051C8.0764 18.7975 9.70514 18.1191 11.4034 18.1191H24.2103C25.9086 18.1191 27.5374 18.7975 28.7383 20.0051Z" fill="white" fill-opacity="0.5" stroke="white" stroke-width="0.25" stroke-linecap="round" stroke-linejoin="round"/>
</g>
<defs>
<filter id="filter0_d_1011_8746" x="-2.125" y="-4.125" width="39.8643" height="39.0273" filterUnits="userSpaceOnUse" color-interpolation-filters="sRGB">
<feFlood flood-opacity="0" result="BackgroundImageFix"/>
<feColorMatrix in="SourceAlpha" type="matrix" values="0 0 0 0 0 0 0 0 0 0 0 0 0 0 0 0 0 0 127 0" result="hardAlpha"/>
<feOffset dx="-1" dy="1"/>
<feGaussianBlur stdDeviation="1.8254"/>
<feComposite in2="hardAlpha" operator="out"/>
<feColorMatrix type="matrix" values="0 0 0 0 1 0 0 0 0 0.309804 0 0 0 0 0.458824 0 0 0 0.25 0"/>
<feBlend mode="normal" in2="BackgroundImageFix" result="effect1_dropShadow_1011_8746"/>
<feBlend mode="normal" in="SourceGraphic" in2="effect1_dropShadow_1011_8746" result="shape"/>
</filter>
</defs>
</svg>
